<svg xmlns="http://www.w3.org/2000/svg" viewBox="0 0 123 57" enable-background="new 0 0 123 57"><path fill="#F7941E" d="M99.1 26.2c-.6-9.5-5.6-14.8-6.7-19.3-1.3-5.5-1-6.3-1-6.3l-84.8 5.4s.2.7-.3 6.9c-.6 5.4-5.3 9-4.6 19.4.6 9 5.3 12.1 6.9 17.4 1.4 4.8 1.4 5.9 1.4 6.1l84.4-5.3s-.3-.3.4-5.7c.3-1.7.8-3.2 1.4-4.6-.9-.3-1.5-1.1-1.5-2.1 0-1.2 1-2.3 2.3-2.3.3 0 .6.1.9.2.7-2.6 1.4-5.6 1.2-9.8z"/><path d="M108.9 29.8c-1.5 0-2.6 1.9-3 3.7l-.9 4.1c.2.1.7.5 1.6.5 2.5 0 3.4-4 3.4-6.6.1-1.1-.3-1.7-1.1-1.7z" fill="none"/><path fill="#F7941E" d="M9.9 55.9h-.1s0 .1.1 0zM96.8 40.4c1.2 0 2.3-1 2.3-2.3 0-.9-.6-1.7-1.4-2.1-.5 1.5-1.1 2.8-1.6 4.2.2.1.4.2.7.2zM110.4 27.3c-2.2 0-3.3 1.5-4 2.2 0-1.2-.2-2.2-.5-2.2-.1 0-.2 0-.3.1l-2 .8c-.1 0-.3.1-.3.3 0 .3.2.9.2 1.5 0 .3 0 .7-.1 1.3l-2.8 13.3-.1.5c0 .1 0 .2.1.2s.3 0 .4-.1l2.2-.4c.4-.1.4-.2.4-.4l1-4.5c.4.2.9.6 2.2.6 4.3 0 6.3-5.4 6.3-9.4 0-2.6-1-3.8-2.7-3.8zm-3.7 10.8c-.8 0-1.4-.4-1.6-.5l.9-4.1c.4-1.8 1.5-3.7 3-3.7.8 0 1.2.6 1.2 1.7-.1 2.6-1 6.6-3.5 6.6zM120.8 22.8c0-.1.1-.3.1-.5s0-.2-.1-.2-.2 0-.3.1l-2.2.4c-.4.1-.4.2-.4.4l-2.7 12.7c-.2.9-.3 1.7-.3 2.6 0 1.6 1 2.1 2.4 2.1 1 0 2.5-.3 2.5-.7v-.2l-.2-1.7c0-.1-.1-.2-.2-.2s-.5.2-.9.2-.6-.1-.6-.5c0-.3.2-1 .3-1.6l2.6-12.9z"/><path fill="#fff" d="M17.4 40.5c-6.1 0-9-3.6-8.9-11.2 0-7.2 3-11.5 9-11.5 2.6 0 5.7 1.7 5.7 2.3 0 .1 0 .3-.2.5l-1.3 1.8c-.1.2-.3.3-.4.3-.6 0-1.7-1.5-3.6-1.5-3 0-4.3 1.8-4.3 7.3 0 5.3.7 8.6 4.3 8.6 1.9 0 3.2-1.2 3.9-1.2.1 0 .2.1.4.3l1.1 1.8c.1.2.2.3.2.5-.2.5-2.5 2-5.9 2zM38.9 19.2l-.7 2.1c-.1.5-.5.5-.8.5h-6.7v5.2h5.9c.6 0 .7.1.7.7v2.1c0 .6-.1.7-.7.7h-5.9v6.2h7.4c.6 0 .7.1.7.7v2.1c0 .6-.1.7-.7.7h-11.4c-.6 0-.7-.1-.7-.7v-20.4c0-.6.1-.7.7-.7h11.4c.7 0 .9.1.9.3 0 .3 0 .3-.1.5zM57 40.1h-2.3c-.5 0-.6-.1-.8-.4l-6.3-10.7c-1-1.8-1.6-2.9-2-4.3h-.1c0 .4.1 2 .1 3.5v11.3c0 .6-.1.7-.7.7h-2.5c-.6 0-.7-.1-.7-.7l.1-20.2c0-.6.1-.7.7-.7h2.8c.5 0 .6.1.8.4l5.7 9.8c1 1.7 1.6 3.3 2 4.6h.1c0-1-.1-3.2-.1-4.1v-10c0-.6.1-.7.7-.7h2.5c.6 0 .7.1.7.7l-.1 20.2c.1.5 0 .6-.6.6zM73.9 19.3l-.7 2.1c-.1.5-.5.5-.8.5h-6.7v5.2h5.9c.6 0 .7.1.7.7v2.1c0 .6-.1.7-.7.7h-5.9v6.2h7.4c.6 0 .7.1.7.7v2.1c0 .6-.1.7-.7.7h-11.4c-.6 0-.7-.1-.7-.7v-20.4c0-.6.1-.7.7-.7h11.4c.7 0 .9.1.9.3 0 .3-.1.3-.1.5zM83.5 40.7c-5.4 0-8.6-3.7-8.6-11.3 0-7.6 3.3-11.3 8.6-11.3s8.6 3.7 8.6 11.4c0 7.5-3.2 11.2-8.6 11.2zm.1-19.4c-2.6 0-3.7 3.1-3.7 8s1.1 8 3.7 8 3.7-3.1 3.7-8-1.1-7.9-3.7-8z"/></svg>